<mxfile host="app.diagrams.net" modified="2021-11-07T19:11:29.766Z" agent="5.0 (Windows NT 10.0; Win64; x64) AppleWebKit/537.36 (KHTML, like Gecko) Chrome/95.0.4638.54 Safari/537.36 Edg/95.0.1020.30" etag="cfNdH_VBpCNxH8MvBCR9" version="15.6.6" type="github" pages="2">
  <diagram id="aAHr1Oo4rQOUyKczvmMj" name="Page-1">
    <mxGraphModel dx="1038" dy="579" grid="1" gridSize="10" guides="1" tooltips="1" connect="1" arrows="1" fold="1" page="1" pageScale="1" pageWidth="850" pageHeight="1100" math="0" shadow="0">
      <root>
        <mxCell id="0" />
        <mxCell id="1" parent="0" />
        <mxCell id="W7g73VPULSKccZMb6CO4-4" value="" style="outlineConnect=0;dashed=0;verticalLabelPosition=bottom;verticalAlign=top;align=center;html=1;shape=mxgraph.aws3.internet;fillColor=#D2D3D3;gradientColor=none;labelBackgroundColor=default;fontColor=default;strokeColor=default;" vertex="1" parent="1">
          <mxGeometry x="400" width="79.5" height="79.5" as="geometry" />
        </mxCell>
        <mxCell id="W7g73VPULSKccZMb6CO4-5" value="" style="shape=mxgraph.cisco.security.router_firewall;html=1;pointerEvents=1;dashed=0;fillColor=#036897;strokeColor=#ffffff;strokeWidth=2;verticalLabelPosition=bottom;verticalAlign=top;align=center;outlineConnect=0;labelBackgroundColor=default;fontColor=default;" vertex="1" parent="1">
          <mxGeometry x="401.5" y="130" width="78" height="62" as="geometry" />
        </mxCell>
        <mxCell id="W7g73VPULSKccZMb6CO4-6" value="" style="endArrow=classic;startArrow=classic;html=1;rounded=0;fontColor=default;strokeColor=default;labelBackgroundColor=default;" edge="1" parent="1">
          <mxGeometry width="50" height="50" relative="1" as="geometry">
            <mxPoint x="440" y="130" as="sourcePoint" />
            <mxPoint x="440" y="70" as="targetPoint" />
          </mxGeometry>
        </mxCell>
        <mxCell id="W7g73VPULSKccZMb6CO4-8" value="Internet" style="text;html=1;strokeColor=none;fillColor=none;align=center;verticalAlign=middle;whiteSpace=wrap;rounded=0;labelBackgroundColor=default;fontColor=default;" vertex="1" parent="1">
          <mxGeometry x="340" y="10" width="60" height="30" as="geometry" />
        </mxCell>
        <mxCell id="XvkeSlHB2nS2I8P_phPO-1" value="Router/Firewall" style="text;html=1;strokeColor=none;fillColor=none;align=center;verticalAlign=middle;whiteSpace=wrap;rounded=0;labelBackgroundColor=default;fontColor=default;" vertex="1" parent="1">
          <mxGeometry x="330" y="130" width="60" height="30" as="geometry" />
        </mxCell>
        <mxCell id="XvkeSlHB2nS2I8P_phPO-2" value="Private subnet" style="points=[[0,0],[0.25,0],[0.5,0],[0.75,0],[1,0],[1,0.25],[1,0.5],[1,0.75],[1,1],[0.75,1],[0.5,1],[0.25,1],[0,1],[0,0.75],[0,0.5],[0,0.25]];outlineConnect=0;gradientColor=none;html=1;whiteSpace=wrap;fontSize=12;fontStyle=0;shape=mxgraph.aws4.group;grIcon=mxgraph.aws4.group_security_group;grStroke=0;strokeColor=#147EBA;fillColor=#E6F2F8;verticalAlign=top;align=left;spacingLeft=30;fontColor=#147EBA;dashed=0;labelBackgroundColor=default;" vertex="1" parent="1">
          <mxGeometry x="190" y="240" width="130" height="130" as="geometry" />
        </mxCell>
        <mxCell id="XvkeSlHB2nS2I8P_phPO-3" value="Private subnet" style="points=[[0,0],[0.25,0],[0.5,0],[0.75,0],[1,0],[1,0.25],[1,0.5],[1,0.75],[1,1],[0.75,1],[0.5,1],[0.25,1],[0,1],[0,0.75],[0,0.5],[0,0.25]];outlineConnect=0;gradientColor=none;html=1;whiteSpace=wrap;fontSize=12;fontStyle=0;shape=mxgraph.aws4.group;grIcon=mxgraph.aws4.group_security_group;grStroke=0;strokeColor=#147EBA;fillColor=#E6F2F8;verticalAlign=top;align=left;spacingLeft=30;fontColor=#147EBA;dashed=0;labelBackgroundColor=default;" vertex="1" parent="1">
          <mxGeometry x="349.5" y="400" width="130" height="130" as="geometry" />
        </mxCell>
        <mxCell id="XvkeSlHB2nS2I8P_phPO-4" value="Public subnet" style="points=[[0,0],[0.25,0],[0.5,0],[0.75,0],[1,0],[1,0.25],[1,0.5],[1,0.75],[1,1],[0.75,1],[0.5,1],[0.25,1],[0,1],[0,0.75],[0,0.5],[0,0.25]];outlineConnect=0;gradientColor=none;html=1;whiteSpace=wrap;fontSize=12;fontStyle=0;shape=mxgraph.aws4.group;grIcon=mxgraph.aws4.group_security_group;grStroke=0;strokeColor=#248814;fillColor=#E9F3E6;verticalAlign=top;align=left;spacingLeft=30;fontColor=#248814;dashed=0;labelBackgroundColor=default;" vertex="1" parent="1">
          <mxGeometry x="560" y="238" width="130" height="130" as="geometry" />
        </mxCell>
        <mxCell id="XvkeSlHB2nS2I8P_phPO-7" value="" style="sketch=0;outlineConnect=0;fillColor=#008a00;strokeColor=#005700;dashed=0;verticalLabelPosition=bottom;verticalAlign=top;align=center;html=1;fontSize=12;fontStyle=0;aspect=fixed;pointerEvents=1;shape=mxgraph.aws4.internet_gateway;labelBackgroundColor=default;fontColor=#ffffff;gradientDirection=radial;" vertex="1" parent="1">
          <mxGeometry x="600" y="122" width="78" height="78" as="geometry" />
        </mxCell>
        <mxCell id="XvkeSlHB2nS2I8P_phPO-11" value="" style="sketch=0;outlineConnect=0;fillColor=#008a00;strokeColor=#005700;dashed=0;verticalLabelPosition=bottom;verticalAlign=top;align=center;html=1;fontSize=12;fontStyle=0;aspect=fixed;pointerEvents=1;shape=mxgraph.aws4.nat_gateway;labelBackgroundColor=default;fontColor=#ffffff;gradientDirection=radial;" vertex="1" parent="1">
          <mxGeometry x="570" y="300" width="60" height="60" as="geometry" />
        </mxCell>
        <mxCell id="XvkeSlHB2nS2I8P_phPO-13" value="" style="endArrow=classic;startArrow=classic;html=1;rounded=0;labelBackgroundColor=default;fontColor=default;strokeColor=default;exitX=0.5;exitY=0;exitDx=0;exitDy=0;edgeStyle=orthogonalEdgeStyle;" edge="1" parent="1" source="XvkeSlHB2nS2I8P_phPO-2">
          <mxGeometry width="50" height="50" relative="1" as="geometry">
            <mxPoint x="176" y="180" as="sourcePoint" />
            <mxPoint x="406" y="180" as="targetPoint" />
          </mxGeometry>
        </mxCell>
        <mxCell id="XvkeSlHB2nS2I8P_phPO-16" value="" style="endArrow=classic;startArrow=classic;html=1;rounded=0;labelBackgroundColor=default;fontColor=default;strokeColor=default;edgeStyle=orthogonalEdgeStyle;exitX=0.5;exitY=1;exitDx=0;exitDy=0;" edge="1" parent="1" source="XvkeSlHB2nS2I8P_phPO-4" target="XvkeSlHB2nS2I8P_phPO-3">
          <mxGeometry width="50" height="50" relative="1" as="geometry">
            <mxPoint x="625" y="390" as="sourcePoint" />
            <mxPoint x="480" y="380" as="targetPoint" />
            <Array as="points">
              <mxPoint x="625" y="410" />
            </Array>
          </mxGeometry>
        </mxCell>
        <mxCell id="XvkeSlHB2nS2I8P_phPO-17" value="" style="endArrow=classic;startArrow=classic;html=1;rounded=0;labelBackgroundColor=default;fontColor=default;strokeColor=default;entryX=-0.036;entryY=0.608;entryDx=0;entryDy=0;entryPerimeter=0;" edge="1" parent="1" target="XvkeSlHB2nS2I8P_phPO-7">
          <mxGeometry width="50" height="50" relative="1" as="geometry">
            <mxPoint x="480" y="170" as="sourcePoint" />
            <mxPoint x="580" y="170" as="targetPoint" />
          </mxGeometry>
        </mxCell>
        <mxCell id="XvkeSlHB2nS2I8P_phPO-18" value="" style="endArrow=classic;startArrow=classic;html=1;rounded=0;labelBackgroundColor=default;fontColor=default;strokeColor=default;" edge="1" parent="1" target="XvkeSlHB2nS2I8P_phPO-7">
          <mxGeometry width="50" height="50" relative="1" as="geometry">
            <mxPoint x="639" y="240" as="sourcePoint" />
            <mxPoint x="639" y="210" as="targetPoint" />
          </mxGeometry>
        </mxCell>
        <mxCell id="XvkeSlHB2nS2I8P_phPO-23" style="edgeStyle=none;rounded=0;orthogonalLoop=1;jettySize=auto;html=1;exitX=0.5;exitY=0;exitDx=0;exitDy=0;labelBackgroundColor=default;fontColor=default;strokeColor=default;" edge="1" parent="1" source="XvkeSlHB2nS2I8P_phPO-22">
          <mxGeometry relative="1" as="geometry">
            <mxPoint x="140" y="300" as="targetPoint" />
          </mxGeometry>
        </mxCell>
        <mxCell id="XvkeSlHB2nS2I8P_phPO-25" style="edgeStyle=none;rounded=0;orthogonalLoop=1;jettySize=auto;html=1;exitX=1;exitY=0.5;exitDx=0;exitDy=0;labelBackgroundColor=default;fontColor=default;strokeColor=default;" edge="1" parent="1" source="XvkeSlHB2nS2I8P_phPO-22" target="XvkeSlHB2nS2I8P_phPO-2">
          <mxGeometry relative="1" as="geometry" />
        </mxCell>
        <mxCell id="XvkeSlHB2nS2I8P_phPO-22" value="Private subnet 1, accessible via the LAN" style="text;html=1;strokeColor=none;fillColor=none;align=center;verticalAlign=middle;whiteSpace=wrap;rounded=0;labelBackgroundColor=default;fontColor=default;" vertex="1" parent="1">
          <mxGeometry x="110" y="288" width="60" height="30" as="geometry" />
        </mxCell>
        <mxCell id="XvkeSlHB2nS2I8P_phPO-31" style="edgeStyle=none;rounded=0;orthogonalLoop=1;jettySize=auto;html=1;exitX=0;exitY=0.5;exitDx=0;exitDy=0;entryX=1;entryY=0.365;entryDx=0;entryDy=0;entryPerimeter=0;labelBackgroundColor=default;fontColor=default;strokeColor=default;" edge="1" parent="1" source="XvkeSlHB2nS2I8P_phPO-26" target="XvkeSlHB2nS2I8P_phPO-4">
          <mxGeometry relative="1" as="geometry" />
        </mxCell>
        <mxCell id="XvkeSlHB2nS2I8P_phPO-26" value="Public Subnet, internet access via the internet gateway" style="text;html=1;strokeColor=none;fillColor=none;align=center;verticalAlign=middle;whiteSpace=wrap;rounded=0;labelBackgroundColor=default;fontColor=default;" vertex="1" parent="1">
          <mxGeometry x="720" y="270" width="80" height="30" as="geometry" />
        </mxCell>
        <mxCell id="XvkeSlHB2nS2I8P_phPO-30" value="Internet gateway" style="text;html=1;strokeColor=none;fillColor=none;align=center;verticalAlign=middle;whiteSpace=wrap;rounded=0;labelBackgroundColor=default;fontColor=default;" vertex="1" parent="1">
          <mxGeometry x="609" y="90" width="60" height="30" as="geometry" />
        </mxCell>
        <mxCell id="XvkeSlHB2nS2I8P_phPO-37" style="edgeStyle=none;rounded=0;orthogonalLoop=1;jettySize=auto;html=1;exitX=1;exitY=0.5;exitDx=0;exitDy=0;labelBackgroundColor=default;fontColor=default;strokeColor=default;" edge="1" parent="1" source="XvkeSlHB2nS2I8P_phPO-33" target="XvkeSlHB2nS2I8P_phPO-11">
          <mxGeometry relative="1" as="geometry" />
        </mxCell>
        <mxCell id="XvkeSlHB2nS2I8P_phPO-33" value="NAT-Gateway" style="text;html=1;strokeColor=none;fillColor=none;align=center;verticalAlign=middle;whiteSpace=wrap;rounded=0;labelBackgroundColor=default;fontColor=default;" vertex="1" parent="1">
          <mxGeometry x="479.5" y="315" width="60" height="30" as="geometry" />
        </mxCell>
        <mxCell id="XvkeSlHB2nS2I8P_phPO-36" style="edgeStyle=none;rounded=0;orthogonalLoop=1;jettySize=auto;html=1;exitX=0;exitY=0.5;exitDx=0;exitDy=0;entryX=1;entryY=0.5;entryDx=0;entryDy=0;labelBackgroundColor=default;fontColor=default;strokeColor=default;" edge="1" parent="1" source="XvkeSlHB2nS2I8P_phPO-34" target="XvkeSlHB2nS2I8P_phPO-3">
          <mxGeometry relative="1" as="geometry" />
        </mxCell>
        <mxCell id="XvkeSlHB2nS2I8P_phPO-34" value="Private Subnet 2, internet access via the NAT-gateway" style="text;html=1;strokeColor=none;fillColor=none;align=center;verticalAlign=middle;whiteSpace=wrap;rounded=0;labelBackgroundColor=default;fontColor=default;" vertex="1" parent="1">
          <mxGeometry x="500" y="450" width="60" height="30" as="geometry" />
        </mxCell>
        <mxCell id="XvkeSlHB2nS2I8P_phPO-35" style="edgeStyle=none;rounded=0;orthogonalLoop=1;jettySize=auto;html=1;exitX=0.5;exitY=0;exitDx=0;exitDy=0;labelBackgroundColor=default;fontColor=default;strokeColor=default;" edge="1" parent="1" source="XvkeSlHB2nS2I8P_phPO-34" target="XvkeSlHB2nS2I8P_phPO-34">
          <mxGeometry relative="1" as="geometry" />
        </mxCell>
        <mxCell id="XvkeSlHB2nS2I8P_phPO-38" value="CIDR: 10.0.0.0/27" style="text;html=1;strokeColor=none;fillColor=none;align=center;verticalAlign=middle;whiteSpace=wrap;rounded=0;labelBackgroundColor=default;fontColor=default;" vertex="1" parent="1">
          <mxGeometry x="190" y="260" width="100" height="30" as="geometry" />
        </mxCell>
        <mxCell id="XvkeSlHB2nS2I8P_phPO-39" value="CIDR:10.0.2.0/28" style="text;html=1;strokeColor=none;fillColor=none;align=center;verticalAlign=middle;whiteSpace=wrap;rounded=0;labelBackgroundColor=default;fontColor=default;" vertex="1" parent="1">
          <mxGeometry x="365" y="420" width="60" height="30" as="geometry" />
        </mxCell>
        <mxCell id="XvkeSlHB2nS2I8P_phPO-40" value="CIDR: 10.0.1.0/29" style="text;html=1;strokeColor=none;fillColor=none;align=center;verticalAlign=middle;whiteSpace=wrap;rounded=0;labelBackgroundColor=default;fontColor=default;" vertex="1" parent="1">
          <mxGeometry x="560" y="260" width="100" height="30" as="geometry" />
        </mxCell>
      </root>
    </mxGraphModel>
  </diagram>
  <diagram id="SRrma8L7KzV8kxtef4hG" name="Page-2">
    <mxGraphModel dx="1038" dy="579" grid="1" gridSize="10" guides="1" tooltips="1" connect="1" arrows="1" fold="1" page="1" pageScale="1" pageWidth="850" pageHeight="1100" math="0" shadow="0">
      <root>
        <mxCell id="zIfVGx4-L7aqTwEyp_5--0" />
        <mxCell id="zIfVGx4-L7aqTwEyp_5--1" parent="zIfVGx4-L7aqTwEyp_5--0" />
      </root>
    </mxGraphModel>
  </diagram>
</mxfile>
